<?xml version="1.0" encoding="utf-8"?>
<svg aria-hidden="true" focusable="false" data-prefix="fas" data-icon="text-height" class="svg-inline--fa fa-text-height fa-w-18" role="img" viewBox="0 0 576 512" xmlns="http://www.w3.org/2000/svg">
  <path fill="currentColor" d="M 304 32 L 16 32 C 7.163 32 0 39.163 0 48 L 0 144 C 0 152.837 7.163 160 16 160 L 48 160 C 56.837 160 64 152.837 64 144 L 64 112 L 120 112 L 120 416 L 80 416 C 71.163 416 64 423.163 64 432 L 64 464 C 64 472.837 71.163 480 80 480 L 240 480 C 248.837 480 256 472.837 256 464 L 256 432 C 256 423.163 248.837 416 240 416 L 200 416 L 200 112 L 256 112 L 256 144 C 256 152.837 263.163 160 272 160 L 304 160 C 312.837 160 320 152.837 320 144 L 320 48 C 320 39.163 312.837 32 304 32 Z M 560 368 L 512 368 L 510.315 35.538 C 504.067 29.295 448.575 33.998 448.575 33.998 L 448 368 L 400 368 C 385.69 368 378.68 385.31 388.69 395.31 L 468.69 475.31 C 474.938 481.553 485.062 481.553 491.31 475.31 L 571.31 395.31 C 580.64 386 575.64 368 560 368 Z"/>
</svg>