<?xml version="1.0" ?><svg id="Icons" style="enable-background:new 0 0 32 32;" version="1.1" viewBox="0 0 32 32" xml:space="preserve" xmlns="http://www.w3.org/2000/svg" xmlns:xlink="http://www.w3.org/1999/xlink"><g><path d="M17,3H3C2.4,3,2,3.4,2,4s0.4,1,1,1h14c0.6,0,1-0.4,1-1S17.6,3,17,3z"/><path d="M17,8H3C2.4,8,2,8.4,2,9s0.4,1,1,1h14c0.6,0,1-0.4,1-1S17.6,8,17,8z"/><path d="M17,13H3c-0.6,0-1,0.4-1,1s0.4,1,1,1h14c0.6,0,1-0.4,1-1S17.6,13,17,13z"/><path d="M17,18H3c-0.6,0-1,0.4-1,1s0.4,1,1,1h14c0.6,0,1-0.4,1-1S17.6,18,17,18z"/><path d="M17,23H3c-0.6,0-1,0.4-1,1s0.4,1,1,1h14c0.6,0,1-0.4,1-1S17.6,23,17,23z"/><path d="M17,28H3c-0.6,0-1,0.4-1,1s0.4,1,1,1h14c0.6,0,1-0.4,1-1S17.6,28,17,28z"/><path d="M25.7,19.3c-0.1-0.1-0.2-0.2-0.3-0.2c-0.2-0.1-0.5-0.1-0.8,0c-0.1,0.1-0.2,0.1-0.3,0.2l-4,4c-0.4,0.4-0.4,1,0,1.4   s1,0.4,1.4,0l2.3-2.3V30c0,0.6,0.4,1,1,1s1-0.4,1-1v-7.6l2.3,2.3c0.2,0.2,0.5,0.3,0.7,0.3s0.5-0.1,0.7-0.3c0.4-0.4,0.4-1,0-1.4   L25.7,19.3z"/><path d="M24.3,13.7c0.1,0.1,0.2,0.2,0.3,0.2C24.7,14,24.9,14,25,14s0.3,0,0.4-0.1c0.1-0.1,0.2-0.1,0.3-0.2l4-4c0.4-0.4,0.4-1,0-1.4   s-1-0.4-1.4,0L26,10.6V3c0-0.6-0.4-1-1-1s-1,0.4-1,1v7.6l-2.3-2.3c-0.4-0.4-1-0.4-1.4,0s-0.4,1,0,1.4L24.3,13.7z"/></g></svg>